<svg id="Layer_1" data-name="Layer 1" xmlns="http://www.w3.org/2000/svg" viewBox="0 0 936.37 132.19"><defs><style>.cls-1{fill:#1c64b0;}.cls-2{fill:#fff;}</style></defs><path class="cls-1" d="M58.15,54.12a19.45,19.45,0,1,1-3.68,27.26A19.47,19.47,0,0,1,58.15,54.12ZM76.87,78.69a11.43,11.43,0,1,0-16-2.17A11.44,11.44,0,0,0,76.87,78.69Zm-72,8.25A12.57,12.57,0,0,0,20.17,87a13.08,13.08,0,0,0,1.77-1.64l11-1.41a39.11,39.11,0,0,0,5.38,9.6,39.62,39.62,0,0,0,46.6,12.68l6.79,8.9a12.56,12.56,0,0,0,25,2.53,12.58,12.58,0,0,0-9.89-14l-6.57-8.61a39.71,39.71,0,0,0,1.24-49.6,39.23,39.23,0,0,0-7.82-7.73l4.28-10.23a12.73,12.73,0,0,0,2-1.27A12.56,12.56,0,0,0,87.6,4.6a12.16,12.16,0,0,0-2.89,1.65A12.58,12.58,0,0,0,80.4,20.18L76.16,30.33A39.67,39.67,0,0,0,30.41,65.18l-10.89,1.4A12.55,12.55,0,0,0,5,67a13.06,13.06,0,0,0-2.3,2.28,12.57,12.57,0,0,0,2.2,17.63ZM8.66,71.39a6.77,6.77,0,0,1,9.49,1.28,4,4,0,0,1,.31.52l18.47-2.37A32.91,32.91,0,0,1,79.88,38.11l7.34-17.57a3.85,3.85,0,0,1-.27-.3,6.77,6.77,0,1,1,9.49,1.28,6.64,6.64,0,0,1-3.56,1.31L85.49,40.51a32.84,32.84,0,0,1,6,53.79L103,109.36a6.77,6.77,0,1,1-4.83,3.73L86.59,97.9a32.85,32.85,0,0,1-48.84-21L19,79.27A6.76,6.76,0,1,1,8.66,71.39Z"/><path class="cls-2" d="M103,109.36,91.52,94.3a32.84,32.84,0,0,0-6-53.79l7.39-17.68a6.64,6.64,0,0,0,3.56-1.31A6.77,6.77,0,1,0,87,20.24a3.85,3.85,0,0,0,.27.3L79.88,38.11A32.91,32.91,0,0,0,36.93,70.82L18.46,73.19a4,4,0,0,0-.31-.52,6.89,6.89,0,1,0,.87,6.6l18.73-2.41a32.85,32.85,0,0,0,48.84,21l11.57,15.19a6.77,6.77,0,1,0,4.83-3.73ZM81.73,85.06A19.45,19.45,0,1,1,85.41,57.8,19.47,19.47,0,0,1,81.73,85.06Z"/><path class="cls-1" d="M132.52,11.17h23.9a16.26,16.26,0,0,1,5.74,1,12.7,12.7,0,0,1,4.33,2.66,11.18,11.18,0,0,1,2.7,4.18,15.61,15.61,0,0,1,.92,5.44,14.08,14.08,0,0,1-.78,5,9.71,9.71,0,0,1-2.07,3.36,8.39,8.39,0,0,1-3,2,10.44,10.44,0,0,1-3.44.74V36a11.47,11.47,0,0,1,3.66.67,10.78,10.78,0,0,1,3.63,2.11,11.62,11.62,0,0,1,2.78,3.7A12.6,12.6,0,0,1,172,48a16.71,16.71,0,0,1-1,5.8,14.49,14.49,0,0,1-2.78,4.7A12.73,12.73,0,0,1,164,61.68a12.4,12.4,0,0,1-5.32,1.15h-26.2Zm9.77,21.54h12.06a5.67,5.67,0,0,0,4.14-1.44,5.38,5.38,0,0,0,1.48-4V24.94a5.35,5.35,0,0,0-1.48-4,5.63,5.63,0,0,0-4.14-1.45H142.29Zm0,21.83H155.9a6.19,6.19,0,0,0,4.37-1.44,5.44,5.44,0,0,0,1.55-4.19V46.4a5.53,5.53,0,0,0-1.55-4.22,6.07,6.07,0,0,0-4.37-1.48H142.29Z"/><path class="cls-1" d="M185.72,18.57c-2,0-3.39-.44-4.25-1.33a4.69,4.69,0,0,1-1.3-3.4V12.36A4.72,4.72,0,0,1,181.47,9a7.41,7.41,0,0,1,8.47,0,4.62,4.62,0,0,1,1.33,3.41v1.48a4.6,4.6,0,0,1-1.33,3.4A5.76,5.76,0,0,1,185.72,18.57ZM181,24.2h9.47V62.83H181Z"/><path class="cls-1" d="M216.73,63.71a18.94,18.94,0,0,1-7.44-1.4,15.52,15.52,0,0,1-5.62-4.07,18.57,18.57,0,0,1-3.59-6.4,26.19,26.19,0,0,1-1.26-8.4,25.81,25.81,0,0,1,1.26-8.36,18.16,18.16,0,0,1,3.59-6.33,15.53,15.53,0,0,1,5.62-4,18.76,18.76,0,0,1,7.44-1.41,19,19,0,0,1,7.47,1.41,15.43,15.43,0,0,1,5.66,4,18.16,18.16,0,0,1,3.59,6.33,25.81,25.81,0,0,1,1.26,8.36,26.19,26.19,0,0,1-1.26,8.4,18.57,18.57,0,0,1-3.59,6.4,15.41,15.41,0,0,1-5.66,4.07A19.16,19.16,0,0,1,216.73,63.71Zm0-7.62a7.7,7.7,0,0,0,5.92-2.29q2.15-2.29,2.15-6.74V39.89q0-4.37-2.15-6.66a7.71,7.71,0,0,0-5.92-2.3,7.62,7.62,0,0,0-5.85,2.3q-2.15,2.3-2.14,6.66v7.17q0,4.44,2.14,6.74A7.62,7.62,0,0,0,216.73,56.09Z"/><path class="cls-1" d="M275,41H253.43V62.83h-9.76V11.17h9.76V32.34H275V11.17h9.77V62.83H275Z"/><path class="cls-1" d="M324.69,62.83A6.65,6.65,0,0,1,319.77,61a8.28,8.28,0,0,1-2.25-4.84h-.45a9.08,9.08,0,0,1-3.92,5.66,13.41,13.41,0,0,1-7.32,1.88q-5.93,0-9.11-3.09a11,11,0,0,1-3.18-8.27q0-6,4.29-8.88T310,40.55h6.59V37.74a7,7,0,0,0-1.7-5c-1.14-1.19-3-1.78-5.48-1.78a9,9,0,0,0-5.36,1.45,14.09,14.09,0,0,0-3.45,3.44L295,30.75a16.29,16.29,0,0,1,5.7-5.39,18.69,18.69,0,0,1,9.4-2.05q7.85,0,11.91,3.54T326.1,37V55.2H330v7.63Zm-15.68-6a10,10,0,0,0,5.4-1.39,4.57,4.57,0,0,0,2.22-4.12V46.25h-6.07q-7.4,0-7.4,4.7V52.2a4.08,4.08,0,0,0,1.52,3.49A7.09,7.09,0,0,0,309,56.83Z"/><path class="cls-1" d="M337.64,62.83V24.2h9.48v8h.37a12.43,12.43,0,0,1,1.14-3,9.25,9.25,0,0,1,2-2.55,9.78,9.78,0,0,1,3-1.78,11.27,11.27,0,0,1,4-.66h2.07v9h-3c-3.21,0-5.62.47-7.25,1.41a4.89,4.89,0,0,0-2.44,4.59V62.83Z"/><path class="cls-1" d="M366.72,62.83V24.2h9.48v6.44h.37a12.45,12.45,0,0,1,3.55-5.18,10,10,0,0,1,6.81-2.15,12.15,12.15,0,0,1,6.88,1.92,11.44,11.44,0,0,1,4.29,5.85h.15a10.84,10.84,0,0,1,4.11-5.51,12.65,12.65,0,0,1,7.73-2.26,10.5,10.5,0,0,1,8.77,3.92q3.06,3.93,3.07,11.18V62.83h-9.47V39.37q0-8.29-6.22-8.29a9,9,0,0,0-2.7.41,7.11,7.11,0,0,0-2.29,1.18,5.63,5.63,0,0,0-1.59,1.93,5.72,5.72,0,0,0-.6,2.7V62.83h-9.47V39.37q0-8.29-6.21-8.29a8.75,8.75,0,0,0-2.63.41,7.16,7.16,0,0,0-2.3,1.18,6.07,6.07,0,0,0-1.62,1.93,5.5,5.5,0,0,0-.63,2.7V62.83Z"/><path class="cls-1" d="M447.75,63.71a18.86,18.86,0,0,1-7.43-1.4,15.55,15.55,0,0,1-5.63-4.07,18.74,18.74,0,0,1-3.59-6.4,26.2,26.2,0,0,1-1.25-8.4,25.82,25.82,0,0,1,1.25-8.36,18.31,18.31,0,0,1,3.59-6.33,15.57,15.57,0,0,1,5.63-4,18.68,18.68,0,0,1,7.43-1.41,19,19,0,0,1,7.48,1.41,15.51,15.51,0,0,1,5.66,4,18.31,18.31,0,0,1,3.59,6.33,25.81,25.81,0,0,1,1.26,8.36,26.19,26.19,0,0,1-1.26,8.4,18.74,18.74,0,0,1-3.59,6.4,15.49,15.49,0,0,1-5.66,4.07A19.18,19.18,0,0,1,447.75,63.71Zm0-7.62a7.7,7.7,0,0,0,5.92-2.29q2.15-2.29,2.15-6.74V39.89q0-4.37-2.15-6.66a7.71,7.71,0,0,0-5.92-2.3,7.61,7.61,0,0,0-5.84,2.3q-2.15,2.3-2.15,6.66v7.17q0,4.44,2.15,6.74A7.61,7.61,0,0,0,447.75,56.09Z"/><path class="cls-1" d="M474.1,62.83V24.2h9.47v6.44h.37a12.29,12.29,0,0,1,3.74-5.22,10.74,10.74,0,0,1,7.06-2.11q6,0,9.18,3.92t3.18,11.18V62.83h-9.47V39.37c0-2.76-.49-4.84-1.48-6.22s-2.62-2.07-4.89-2.07a10,10,0,0,0-2.84.41A8,8,0,0,0,486,32.67a6.16,6.16,0,0,0-1.73,1.93,5.2,5.2,0,0,0-.67,2.7V62.83Z"/><path class="cls-1" d="M540.7,24.2h8.88L534,69.71a19.72,19.72,0,0,1-1.67,3.59,8.93,8.93,0,0,1-2.18,2.48,8.14,8.14,0,0,1-3,1.4,17.06,17.06,0,0,1-4.15.45h-5.7V70h7l1.78-5.39L512.21,24.2h9.4l6.73,20.38,2.52,9.75h.44L534,44.58Z"/><path class="cls-1" d="M562.08,35.59a5.91,5.91,0,0,1-4.47-1.51,5.39,5.39,0,0,1-1.45-3.89V28.86a5.49,5.49,0,0,1,1.45-3.92,7.26,7.26,0,0,1,9,0,5.64,5.64,0,0,1,1.4,3.92v1.33a5.53,5.53,0,0,1-1.4,3.89Q565.19,35.6,562.08,35.59Zm0,28.05a5.91,5.91,0,0,1-4.47-1.52,5.36,5.36,0,0,1-1.45-3.88V56.91A5.53,5.53,0,0,1,557.61,53a7.29,7.29,0,0,1,9,0,5.68,5.68,0,0,1,1.4,3.93v1.33a5.5,5.5,0,0,1-1.4,3.88A5.93,5.93,0,0,1,562.08,63.64Z"/><path class="cls-1" d="M629.42,62.83l-4.14-13.18H606.92l-4.07,13.18h-9.91l17.31-51.66h12.14l17.17,51.66ZM616.25,20.05h-.37l-6.59,21.24h13.62Z"/><path class="cls-1" d="M646.59,62.83V24.2h9.47v6.44h.37a12.38,12.38,0,0,1,3.74-5.22,10.76,10.76,0,0,1,7.07-2.11q6,0,9.17,3.92t3.18,11.18V62.83h-9.47V39.37c0-2.76-.49-4.84-1.48-6.22s-2.61-2.07-4.88-2.07a10,10,0,0,0-2.85.41,7.9,7.9,0,0,0-2.44,1.18,6.07,6.07,0,0,0-1.74,1.93,5.2,5.2,0,0,0-.67,2.7V62.83Z"/><path class="cls-1" d="M690.1,62.83V24.2h9.47v6.44h.37a12.38,12.38,0,0,1,3.74-5.22,10.76,10.76,0,0,1,7.07-2.11q6,0,9.17,3.92t3.19,11.18V62.83h-9.48V39.37c0-2.76-.49-4.84-1.48-6.22s-2.61-2.07-4.88-2.07a10,10,0,0,0-2.85.41A7.9,7.9,0,0,0,702,32.67a6.07,6.07,0,0,0-1.74,1.93,5.2,5.2,0,0,0-.67,2.7V62.83Z"/><path class="cls-1" d="M748.93,63.71a18.94,18.94,0,0,1-7.44-1.4,15.52,15.52,0,0,1-5.62-4.07,18.74,18.74,0,0,1-3.59-6.4,26.19,26.19,0,0,1-1.26-8.4,25.81,25.81,0,0,1,1.26-8.36,18.31,18.31,0,0,1,3.59-6.33,15.53,15.53,0,0,1,5.62-4,18.76,18.76,0,0,1,7.44-1.41,19,19,0,0,1,7.47,1.41,15.46,15.46,0,0,1,5.67,4,18.14,18.14,0,0,1,3.58,6.33,25.81,25.81,0,0,1,1.26,8.36,26.19,26.19,0,0,1-1.26,8.4,18.55,18.55,0,0,1-3.58,6.4,15.45,15.45,0,0,1-5.67,4.07A19.16,19.16,0,0,1,748.93,63.71Zm0-7.62a7.7,7.7,0,0,0,5.92-2.29Q757,51.51,757,47.06V39.89q0-4.37-2.15-6.66a7.71,7.71,0,0,0-5.92-2.3,7.62,7.62,0,0,0-5.85,2.3q-2.15,2.3-2.14,6.66v7.17q0,4.44,2.14,6.74A7.62,7.62,0,0,0,748.93,56.09Z"/><path class="cls-1" d="M787,62.83q-4.89,0-7.44-2.55T777.05,53V31.82h-5.7V24.2h3a3.54,3.54,0,0,0,2.93-1,4.91,4.91,0,0,0,.77-3V13.62h8.51V24.2h7.92v7.62h-7.92V55.2h7.33v7.63Z"/><path class="cls-1" d="M831.07,62.83A6.65,6.65,0,0,1,826.15,61a8.35,8.35,0,0,1-2.26-4.84h-.44a9.08,9.08,0,0,1-3.92,5.66,13.47,13.47,0,0,1-7.33,1.88q-5.93,0-9.1-3.09a11,11,0,0,1-3.18-8.27q0-6,4.29-8.88t12.21-2.92H823V37.74a7,7,0,0,0-1.7-5c-1.13-1.19-3-1.78-5.47-1.78a9.05,9.05,0,0,0-5.37,1.45A14.05,14.05,0,0,0,807,35.82l-5.62-5.07a16.35,16.35,0,0,1,5.69-5.39,18.69,18.69,0,0,1,9.4-2.05q7.85,0,11.92,3.54T832.48,37V55.2h3.84v7.63Zm-15.69-6a10,10,0,0,0,5.4-1.39A4.57,4.57,0,0,0,823,51.32V46.25h-6.06q-7.41,0-7.4,4.7V52.2a4.08,4.08,0,0,0,1.51,3.49A7.11,7.11,0,0,0,815.38,56.83Z"/><path class="cls-1" d="M855.79,62.83q-4.89,0-7.44-2.55c-1.7-1.7-2.56-4.12-2.56-7.27V31.82H840.1V24.2h3a3.52,3.52,0,0,0,2.92-1,4.84,4.84,0,0,0,.78-3V13.62h8.51V24.2h7.92v7.62h-7.92V55.2h7.32v7.63Z"/><path class="cls-1" d="M886.42,63.71a18.94,18.94,0,0,1-7.44-1.4,15.52,15.52,0,0,1-5.62-4.07,18.57,18.57,0,0,1-3.59-6.4,26.19,26.19,0,0,1-1.26-8.4,25.81,25.81,0,0,1,1.26-8.36,18.16,18.16,0,0,1,3.59-6.33,15.53,15.53,0,0,1,5.62-4,18.76,18.76,0,0,1,7.44-1.41,19,19,0,0,1,7.47,1.41,15.43,15.43,0,0,1,5.66,4,18.16,18.16,0,0,1,3.59,6.33,25.81,25.81,0,0,1,1.26,8.36,26.19,26.19,0,0,1-1.26,8.4,18.57,18.57,0,0,1-3.59,6.4,15.41,15.41,0,0,1-5.66,4.07A19.16,19.16,0,0,1,886.42,63.71Zm0-7.62a7.7,7.7,0,0,0,5.92-2.29q2.14-2.29,2.15-6.74V39.89q0-4.37-2.15-6.66a7.71,7.71,0,0,0-5.92-2.3,7.62,7.62,0,0,0-5.85,2.3q-2.15,2.3-2.14,6.66v7.17q0,4.44,2.14,6.74A7.62,7.62,0,0,0,886.42,56.09Z"/><path class="cls-1" d="M912.76,62.83V24.2h9.48v8h.37a12,12,0,0,1,1.14-3,9.25,9.25,0,0,1,2-2.55,9.85,9.85,0,0,1,3-1.78,11.37,11.37,0,0,1,4-.66h2.07v9h-3q-4.81,0-7.25,1.41a4.89,4.89,0,0,0-2.44,4.59V62.83Z"/><path class="cls-1" d="M157,92.2h-.24L154,97.82l-8,14.59-8-14.59-2.83-5.62h-.24v28.23h-3.93V86.92h5.37l9.6,18h.24l9.65-18H161v33.51H157Z"/><path class="cls-1" d="M178.82,121a11,11,0,0,1-4.58-.91,9.84,9.84,0,0,1-3.51-2.62,11.69,11.69,0,0,1-2.25-4.08,18.22,18.22,0,0,1,0-10.68,11.78,11.78,0,0,1,2.25-4.1A9.84,9.84,0,0,1,174.24,96a11.21,11.21,0,0,1,4.58-.91,10.46,10.46,0,0,1,4.46.91,9.85,9.85,0,0,1,3.36,2.51,11.25,11.25,0,0,1,2.14,3.81,15.1,15.1,0,0,1,.74,4.83V109h-17.8v1.16a8.39,8.39,0,0,0,.5,3,7.11,7.11,0,0,0,1.44,2.37A6.53,6.53,0,0,0,176,117a8,8,0,0,0,3.1.57,7.48,7.48,0,0,0,4.1-1.1,7.31,7.31,0,0,0,2.72-3.17l2.73,2a9.53,9.53,0,0,1-3.74,4.13A11.29,11.29,0,0,1,178.82,121Zm0-22.7a7.21,7.21,0,0,0-2.88.55,6.35,6.35,0,0,0-2.23,1.55,7.2,7.2,0,0,0-1.47,2.36,8.22,8.22,0,0,0-.52,3v.33H185.4v-.52a7.52,7.52,0,0,0-1.8-5.27A6.16,6.16,0,0,0,178.82,98.3Z"/><path class="cls-1" d="M201.33,120.43a4,4,0,0,1-3.05-1.13,4.17,4.17,0,0,1-1-2.94V99.07h-4.08V95.66h2.3a2.25,2.25,0,0,0,1.71-.51,2.63,2.63,0,0,0,.45-1.75V88.79h3.46v6.87h5.42v3.41h-5.42v18h5v3.41Z"/><path class="cls-1" d="M230.71,120.43a3.77,3.77,0,0,1-3.1-1.16,5.69,5.69,0,0,1-1.18-2.88h-.24a6.42,6.42,0,0,1-2.68,3.46A8.35,8.35,0,0,1,219,121a8.72,8.72,0,0,1-6.12-2,7.12,7.12,0,0,1-2.18-5.48,6.23,6.23,0,0,1,2.57-5.37q2.56-1.87,8-1.87h4.89v-2.45a5.34,5.34,0,0,0-1.44-4,6.13,6.13,0,0,0-4.41-1.4,6.66,6.66,0,0,0-3.77,1,8.25,8.25,0,0,0-2.52,2.69l-2.3-2.16A8.73,8.73,0,0,1,215,96.5a10.08,10.08,0,0,1,5.57-1.42,10.25,10.25,0,0,1,7,2.21,7.74,7.74,0,0,1,2.49,6.13V117h2.84v3.41Zm-11-2.69a9.54,9.54,0,0,0,2.64-.34,6.32,6.32,0,0,0,2.06-1,4.56,4.56,0,0,0,1.34-1.44,3.41,3.41,0,0,0,.48-1.77v-4.08h-5.08a9.31,9.31,0,0,0-4.83,1,3.08,3.08,0,0,0-1.51,2.78v1a3.36,3.36,0,0,0,1.32,2.83A5.77,5.77,0,0,0,219.67,117.74Z"/><path class="cls-1" d="M254.18,116.44H254a7.57,7.57,0,0,1-7.25,4.56,9.39,9.39,0,0,1-4.18-.91,9.06,9.06,0,0,1-3.19-2.59,12,12,0,0,1-2-4.08,21.28,21.28,0,0,1,0-10.75,12,12,0,0,1,2-4.08,9.09,9.09,0,0,1,3.19-2.6,9.53,9.53,0,0,1,4.18-.91,8.46,8.46,0,0,1,4.44,1.12A7,7,0,0,1,254,99.64h.19V84.91H258v35.52h-3.84Zm-6.39,1.15a9.17,9.17,0,0,0,2.48-.33,6.46,6.46,0,0,0,2-1,4.93,4.93,0,0,0,1.36-1.59,4.46,4.46,0,0,0,.51-2.15v-9.26a3.8,3.8,0,0,0-.51-1.91,4.8,4.8,0,0,0-1.36-1.52,6.92,6.92,0,0,0-2-1,8.45,8.45,0,0,0-2.48-.36,6.59,6.59,0,0,0-5.13,2.05,7.66,7.66,0,0,0-1.87,5.38v4.24a7.65,7.65,0,0,0,1.87,5.38A6.59,6.59,0,0,0,247.79,117.59Z"/><path class="cls-1" d="M284.18,120.43a3.78,3.78,0,0,1-3.1-1.16,5.68,5.68,0,0,1-1.17-2.88h-.24a6.43,6.43,0,0,1-2.69,3.46,8.35,8.35,0,0,1-4.47,1.15,8.72,8.72,0,0,1-6.12-2,7.12,7.12,0,0,1-2.18-5.48,6.25,6.25,0,0,1,2.57-5.37q2.57-1.87,8-1.87h4.9v-2.45a5.34,5.34,0,0,0-1.44-4,6.15,6.15,0,0,0-4.42-1.4,6.68,6.68,0,0,0-3.77,1,8.25,8.25,0,0,0-2.52,2.69l-2.3-2.16a8.73,8.73,0,0,1,3.21-3.43A10.1,10.1,0,0,1,274,95.08a10.23,10.23,0,0,1,7,2.21,7.75,7.75,0,0,1,2.5,6.13V117h2.83v3.41Zm-11-2.69a9.54,9.54,0,0,0,2.64-.34,6.23,6.23,0,0,0,2.06-1,4.6,4.6,0,0,0,1.35-1.44,3.41,3.41,0,0,0,.48-1.77v-4.08h-5.09a9.31,9.31,0,0,0-4.83,1,3.1,3.1,0,0,0-1.51,2.78v1a3.36,3.36,0,0,0,1.32,2.83A5.77,5.77,0,0,0,273.14,117.74Z"/><path class="cls-1" d="M297.28,120.43a4,4,0,0,1-3-1.13,4.21,4.21,0,0,1-1-2.94V99.07h-4.08V95.66h2.31a2.23,2.23,0,0,0,1.7-.51,2.62,2.62,0,0,0,.46-1.75V88.79H297v6.87h5.43v3.41H297v18h5v3.41Z"/><path class="cls-1" d="M326.66,120.43a3.78,3.78,0,0,1-3.1-1.16,5.68,5.68,0,0,1-1.17-2.88h-.24a6.43,6.43,0,0,1-2.69,3.46A8.35,8.35,0,0,1,315,121a8.72,8.72,0,0,1-6.12-2,7.12,7.12,0,0,1-2.18-5.48,6.25,6.25,0,0,1,2.57-5.37q2.57-1.87,8-1.87h4.9v-2.45a5.34,5.34,0,0,0-1.44-4,6.15,6.15,0,0,0-4.42-1.4,6.68,6.68,0,0,0-3.77,1,8.25,8.25,0,0,0-2.52,2.69l-2.3-2.16a8.73,8.73,0,0,1,3.21-3.43,10.1,10.1,0,0,1,5.57-1.42,10.23,10.23,0,0,1,7,2.21,7.75,7.75,0,0,1,2.5,6.13V117h2.83v3.41Zm-11-2.69a9.54,9.54,0,0,0,2.64-.34,6.23,6.23,0,0,0,2.06-1,4.6,4.6,0,0,0,1.35-1.44,3.41,3.41,0,0,0,.48-1.77v-4.08h-5.09a9.31,9.31,0,0,0-4.83,1,3.1,3.1,0,0,0-1.51,2.78v1a3.36,3.36,0,0,0,1.32,2.83A5.77,5.77,0,0,0,315.62,117.74Z"/><path class="cls-1" d="M355.41,121a14.43,14.43,0,0,1-7-1.56,14.87,14.87,0,0,1-4.9-4.29l3-2.5a13.14,13.14,0,0,0,3.93,3.58,10.25,10.25,0,0,0,5.09,1.22,7.92,7.92,0,0,0,5.5-1.73,6,6,0,0,0,1.9-4.61,4.7,4.7,0,0,0-1.45-3.69,10.84,10.84,0,0,0-4.75-2.07l-2.73-.62a15.86,15.86,0,0,1-7-3.19,7.61,7.61,0,0,1-2.43-6,9,9,0,0,1,.82-3.93,7.85,7.85,0,0,1,2.28-2.88,10.18,10.18,0,0,1,3.5-1.75,15.89,15.89,0,0,1,4.49-.6,14,14,0,0,1,6.5,1.39,12.57,12.57,0,0,1,4.59,4.08l-3,2.21a10.43,10.43,0,0,0-3.36-3,9.94,9.94,0,0,0-4.89-1.1,8.32,8.32,0,0,0-5.07,1.37,4.78,4.78,0,0,0-1.85,4.1A4.29,4.29,0,0,0,350.11,99a11.91,11.91,0,0,0,4.72,2l2.74.62c3.29.74,5.68,1.86,7.15,3.36a8.24,8.24,0,0,1,2.21,6,10.59,10.59,0,0,1-.79,4.18,8.65,8.65,0,0,1-2.28,3.17,10.61,10.61,0,0,1-3.63,2A15,15,0,0,1,355.41,121Z"/><path class="cls-1" d="M375.43,89.85a2.32,2.32,0,0,1-1.8-.6,2.21,2.21,0,0,1-.56-1.56v-.62a2.21,2.21,0,0,1,.56-1.56,2.32,2.32,0,0,1,1.8-.6,2.35,2.35,0,0,1,1.8.6,2.25,2.25,0,0,1,.55,1.56v.62a2.25,2.25,0,0,1-.55,1.56A2.35,2.35,0,0,1,375.43,89.85Zm-1.92,5.81h3.84v24.77h-3.84Z"/><path class="cls-1" d="M385.51,120.43V95.66h3.84v4h.19a13.27,13.27,0,0,1,1-1.78,6.4,6.4,0,0,1,1.35-1.45,6.19,6.19,0,0,1,1.84-1,7.8,7.8,0,0,1,2.5-.36,9,9,0,0,1,4.51,1.17,7,7,0,0,1,3.07,3.83h.1a7.41,7.41,0,0,1,7.54-5,7.43,7.43,0,0,1,5.92,2.47q2.14,2.48,2.14,7v15.89h-3.84V105.18a8.1,8.1,0,0,0-1.3-5,4.87,4.87,0,0,0-4.12-1.68,8.21,8.21,0,0,0-2.19.29,5.83,5.83,0,0,0-1.85.87,4.22,4.22,0,0,0-1.29,1.46,4.36,4.36,0,0,0-.48,2.09v17.23h-3.84V105.18a8.1,8.1,0,0,0-1.3-5,4.77,4.77,0,0,0-4-1.68,8.48,8.48,0,0,0-2.21.29,5.74,5.74,0,0,0-1.87.87,4.52,4.52,0,0,0-1.32,1.46,4.15,4.15,0,0,0-.5,2.09v17.23Z"/><path class="cls-1" d="M427.41,95.66h3.84v4h.19a7,7,0,0,1,2.81-3.44,8.46,8.46,0,0,1,4.44-1.12,9.49,9.49,0,0,1,4.17.91,9.12,9.12,0,0,1,3.2,2.6,11.8,11.8,0,0,1,2,4.08,21,21,0,0,1,0,10.75,11.8,11.8,0,0,1-2,4.08,9.1,9.1,0,0,1-3.2,2.59,9.35,9.35,0,0,1-4.17.91,7.5,7.5,0,0,1-7.25-4.56h-.19V130h-3.84Zm10.22,21.93a6.6,6.6,0,0,0,5.14-2,7.65,7.65,0,0,0,1.87-5.38v-4.24a7.66,7.66,0,0,0-1.87-5.38,6.6,6.6,0,0,0-5.14-2.05,8.38,8.38,0,0,0-2.47.36,6.92,6.92,0,0,0-2,1,4.83,4.83,0,0,0-1.37,1.52,3.89,3.89,0,0,0-.5,1.91v9.26a4.58,4.58,0,0,0,.5,2.15,5,5,0,0,0,1.37,1.59,6.46,6.46,0,0,0,2,1A9.09,9.09,0,0,0,437.63,117.59Z"/><path class="cls-1" d="M459.33,120.43a3.93,3.93,0,0,1-3.05-1.13,4.07,4.07,0,0,1-1-2.86V84.91h3.84V117h3.65v3.41Z"/><path class="cls-1" d="M470.22,89.85a2.35,2.35,0,0,1-1.8-.6,2.25,2.25,0,0,1-.55-1.56v-.62a2.25,2.25,0,0,1,.55-1.56,2.35,2.35,0,0,1,1.8-.6,2.32,2.32,0,0,1,1.8.6,2.21,2.21,0,0,1,.56,1.56v.62a2.21,2.21,0,0,1-.56,1.56A2.32,2.32,0,0,1,470.22,89.85Zm-1.92,5.81h3.84v24.77H468.3Z"/><path class="cls-1" d="M481.65,99.07h-4V95.66h4v-5A6.28,6.28,0,0,1,483,86.49a5.05,5.05,0,0,1,4.08-1.58h3.75v3.4h-5.33v7.35h13.87v24.77h-3.84V99.07h-10v21.36h-3.84Zm15.79-9.22a2.35,2.35,0,0,1-1.8-.6,2.2,2.2,0,0,1-.55-1.56v-.62a2.2,2.2,0,0,1,.55-1.56,3,3,0,0,1,3.6,0,2.2,2.2,0,0,1,.55,1.56v.62a2.2,2.2,0,0,1-.55,1.56A2.35,2.35,0,0,1,497.44,89.85Z"/><path class="cls-1" d="M516.83,121a11,11,0,0,1-4.58-.91,9.93,9.93,0,0,1-3.51-2.62,11.85,11.85,0,0,1-2.25-4.08,18.22,18.22,0,0,1,0-10.68,11.94,11.94,0,0,1,2.25-4.1A9.93,9.93,0,0,1,512.25,96a11.21,11.21,0,0,1,4.58-.91,10.46,10.46,0,0,1,4.46.91,9.76,9.76,0,0,1,3.36,2.51,11.25,11.25,0,0,1,2.14,3.81,14.83,14.83,0,0,1,.74,4.83V109h-17.8v1.16a8.39,8.39,0,0,0,.5,3,7.11,7.11,0,0,0,1.44,2.37A6.53,6.53,0,0,0,514,117a8,8,0,0,0,3.1.57,7.46,7.46,0,0,0,4.1-1.1,7.25,7.25,0,0,0,2.72-3.17l2.73,2a9.53,9.53,0,0,1-3.74,4.13A11.26,11.26,0,0,1,516.83,121Zm0-22.7a7.21,7.21,0,0,0-2.88.55,6.35,6.35,0,0,0-2.23,1.55,7.2,7.2,0,0,0-1.47,2.36,8.22,8.22,0,0,0-.52,3v.33h13.68v-.52a7.52,7.52,0,0,0-1.8-5.27A6.16,6.16,0,0,0,516.83,98.3Z"/><path class="cls-1" d="M549.71,116.44h-.19a7.57,7.57,0,0,1-7.25,4.56,9.42,9.42,0,0,1-4.18-.91,9.15,9.15,0,0,1-3.19-2.59,11.8,11.8,0,0,1-2-4.08,21,21,0,0,1,0-10.75,11.8,11.8,0,0,1,2-4.08,9.18,9.18,0,0,1,3.19-2.6,9.56,9.56,0,0,1,4.18-.91,8.46,8.46,0,0,1,4.44,1.12,7,7,0,0,1,2.81,3.44h.19V84.91h3.84v35.52h-3.84Zm-6.38,1.15a9.15,9.15,0,0,0,2.47-.33,6.46,6.46,0,0,0,2-1,5,5,0,0,0,1.37-1.59,4.58,4.58,0,0,0,.5-2.15v-9.26a3.89,3.89,0,0,0-.5-1.91,4.83,4.83,0,0,0-1.37-1.52,6.92,6.92,0,0,0-2-1,8.43,8.43,0,0,0-2.47-.36,6.6,6.6,0,0,0-5.14,2.05,7.66,7.66,0,0,0-1.87,5.38v4.24a7.65,7.65,0,0,0,1.87,5.38A6.6,6.6,0,0,0,543.33,117.59Z"/></svg>
