<?xml version="1.0" encoding="utf-8"?>
<!-- Generator: Adobe Illustrator 16.0.5, SVG Export Plug-In . SVG Version: 6.00 Build 0)  -->
<!DOCTYPE svg PUBLIC "-//W3C//DTD SVG 1.1//EN" "http://www.w3.org/Graphics/SVG/1.1/DTD/svg11.dtd">
<svg version="1.1" id="Layer_1" xmlns="http://www.w3.org/2000/svg" xmlns:xlink="http://www.w3.org/1999/xlink" x="0px" y="0px"
	 width="192px" height="26px" viewBox="0 0 192 26" enable-background="new 0 0 192 26" xml:space="preserve">
<g>
	<g>
		<path id="Fill-1_3_" fill="#8F9FB2" d="M26.703,15.428c0.957-1.02,2.176-2.699,2.176-5.23
			c0-2.622-1.328-4.656-2.534-5.694c-1.208-1.039-2.896-1.951-5.353-1.951h-4.758c-0.578,0-0.659,0.114-0.659,0.667v9.936
			c0,0.551,0.085,0.635,0.626,0.637h2.143c0.541-0.002,0.627-0.086,0.627-0.637V5.732h1.607c1.203,0,2.154,0.191,3.026,0.877
			c0.873,0.686,1.678,1.846,1.678,3.588c0,1.615-0.966,3.006-1.722,3.539c-0.757,0.535-1.582,0.838-3.754,0.838h-0.836H9.506
			c-1.039,0-2.245-0.447-2.878-0.904C5.407,12.787,4.9,11.457,4.9,9.986c0-1.389,0.505-2.428,1.239-3.105
			c0.829-0.764,1.91-1.295,3-1.295c0.938,0,1.926,0.349,2.748,0.984c0,0,0.023,0.018,0.124,0.09
			c0.373,0.291,0.522,0.137,0.744-0.096l1.416-1.462c0.166-0.169,0.451-0.442,0.065-0.782L14.172,4.27
			c-1.698-1.454-3.188-1.928-5.18-1.928c-2.141,0-4.074,0.843-5.672,2.467c-1.131,1.149-2.123,3.047-2.123,5.324
			c0,2.34,0.995,4.764,3.293,6.414c1.165,0.836,2.733,1.205,4.502,1.205h1.688l10.437,0.002
			C23.971,17.754,25.748,16.445,26.703,15.428"/>
		<path id="Fill-3_3_" fill="#8F9FB2" d="M41.408,15.428c0.955-1.02,2.174-2.699,2.174-5.23
			c0-2.622-1.328-4.656-2.534-5.694c-1.208-1.039-2.895-1.951-5.354-1.951h-4.758c-0.575,0-0.658,0.114-0.658,0.667v9.936
			c0,0.551,0.086,0.635,0.627,0.637h2.144c0.54-0.002,0.626-0.086,0.626-0.637h0.002V5.732h1.605c1.202,0,2.154,0.191,3.025,0.877
			c0.874,0.686,1.68,1.846,1.68,3.588c0,1.615-0.966,3.006-1.723,3.539c-0.757,0.535-1.582,0.838-3.754,0.838h-0.834h-5.08
			c-0.197,0-0.312,0.133-0.37,0.215l-0.04,0.061c-0.268,0.385-0.666,0.863-0.986,1.188c-0.437,0.445-0.812,0.785-1.504,1.232
			c-0.074,0.045-0.125,0.129-0.125,0.223c0,0.143,0.116,0.26,0.26,0.26l9.99,0.002C38.673,17.754,40.451,16.445,41.408,15.428"/>
		<path id="Fill-5_3_" fill="#8F9FB2" d="M45.595,13.104c-0.066-0.074-0.159-0.119-0.263-0.119
			c-0.192,0-0.348,0.154-0.348,0.348v1.242h-1.688c-0.196,0-0.312,0.133-0.367,0.215l-0.041,0.061
			c-0.268,0.385-0.666,0.863-0.986,1.188c-0.437,0.445-0.812,0.785-1.503,1.232c-0.076,0.047-0.126,0.129-0.126,0.223
			c0,0.143,0.116,0.26,0.26,0.26l4.451,0.002v1.24c0,0.193,0.155,0.348,0.348,0.348c0.102,0,0.193-0.045,0.257-0.115l2.679-2.768
			c0.071-0.078,0.114-0.182,0.114-0.295c0-0.109-0.04-0.207-0.105-0.283L45.595,13.104z"/>
	</g>
	<g>
		<path fill="#8F9FB2" d="M52.508,3.21c0-0.208,0.167-0.396,0.396-0.396h4.564c2.543,0,4.273,1.646,4.273,3.835
			c0,1.604-1.063,2.772-2.043,3.335c1.104,0.459,2.501,1.48,2.501,3.397c0,2.335-1.854,4.022-4.544,4.022h-4.752
			c-0.229,0-0.396-0.188-0.396-0.396V3.21z M57.822,16.008c1.522,0,2.627-1.146,2.627-2.646c0-1.48-1.355-2.564-2.98-2.564h-3.439
			v5.211H57.822z M57.469,9.359c1.605,0,2.501-1.146,2.501-2.605c0-1.501-0.896-2.502-2.501-2.502h-3.397v5.107H57.469z"/>
		<path fill="#8F9FB2" d="M64.33,4.231c0-0.562,0.438-1.001,0.98-1.001c0.562,0,1,0.438,1,1.001c0,0.542-0.438,0.979-1,0.979
			C64.769,5.211,64.33,4.773,64.33,4.231z M64.623,9.463c0-0.208,0.188-0.396,0.396-0.396h0.646c0.209,0,0.396,0.188,0.396,0.396
			v7.545c0,0.209-0.188,0.396-0.396,0.396h-0.646c-0.208,0-0.396-0.188-0.396-0.396V9.463z"/>
		<path fill="#8F9FB2" d="M72.564,8.859c2.314,0,4.148,2,4.148,4.355c0,2.396-1.834,4.398-4.148,4.398
			c-2.313,0-4.147-2.002-4.147-4.398C68.417,10.859,70.251,8.859,72.564,8.859z M72.564,16.258c1.521,0,2.71-1.354,2.71-3.043
			c0-1.646-1.188-2.98-2.71-2.98s-2.709,1.334-2.709,2.98C69.855,14.904,71.043,16.258,72.564,16.258z"/>
		<path fill="#8F9FB2" d="M77.717,16.863l6.336-14.028c0.062-0.125,0.167-0.229,0.354-0.229h0.208c0.188,0,0.292,0.104,0.354,0.229
			l6.295,14.028c0.125,0.27-0.042,0.541-0.354,0.541h-0.834c-0.188,0-0.312-0.125-0.354-0.229l-1.543-3.439H80.78l-1.521,3.439
			c-0.042,0.104-0.167,0.229-0.354,0.229H78.07C77.758,17.404,77.592,17.133,77.717,16.863z M87.617,12.443
			c-1.021-2.271-2.021-4.564-3.043-6.836h-0.167l-3.044,6.836H87.617z"/>
		<path fill="#8F9FB2" d="M92.395,16.238c0.083-0.127,0.229-0.418,0.291-0.521c0.104-0.168,0.334-0.209,0.563-0.062
			c0,0,0.896,0.729,1.959,0.729c0.854,0,1.354-0.438,1.354-1c0-0.73-0.625-1.062-1.834-1.668c-1.104-0.541-2.376-1.271-2.376-2.688
			c0-0.876,0.708-2.168,2.647-2.168c1.084,0,1.917,0.375,2.313,0.646c0.188,0.126,0.25,0.417,0.125,0.646l-0.167,0.333
			c-0.125,0.229-0.417,0.292-0.604,0.188c0,0-0.896-0.5-1.667-0.5c-0.938,0-1.188,0.479-1.188,0.834c0,0.688,0.688,1,1.542,1.418
			c1.438,0.688,2.73,1.334,2.73,2.834c0,1.209-1.167,2.355-2.876,2.355c-1.396,0-2.251-0.584-2.71-0.938
			C92.395,16.592,92.332,16.383,92.395,16.238z"/>
		<path fill="#8F9FB2" d="M99.816,16.238c0.084-0.127,0.229-0.418,0.292-0.521c0.104-0.168,0.333-0.209,0.562-0.062
			c0,0,0.896,0.729,1.96,0.729c0.854,0,1.354-0.438,1.354-1c0-0.73-0.625-1.062-1.834-1.668c-1.104-0.541-2.375-1.271-2.375-2.688
			c0-0.876,0.708-2.168,2.646-2.168c1.084,0,1.918,0.375,2.314,0.646c0.188,0.126,0.25,0.417,0.125,0.646l-0.168,0.333
			c-0.125,0.229-0.416,0.292-0.604,0.188c0,0-0.896-0.5-1.668-0.5c-0.938,0-1.188,0.479-1.188,0.834c0,0.688,0.688,1,1.541,1.418
			c1.439,0.688,2.73,1.334,2.73,2.834c0,1.209-1.166,2.355-2.875,2.355c-1.396,0-2.252-0.584-2.71-0.938
			C99.816,16.592,99.754,16.383,99.816,16.238z"/>
		<path fill="#8F9FB2" d="M110.469,12.11c0.896,0,1.771,0.271,1.771,0.271c0.021-1.542-0.166-2.25-1.354-2.25
			c-1.146,0-2.127,0.312-2.502,0.458c-0.209,0.083-0.334-0.021-0.396-0.208l-0.166-0.521c-0.084-0.25,0.041-0.375,0.229-0.459
			c0.125-0.062,1.334-0.541,2.898-0.541c2.125,0,2.646,1.084,2.646,3.521v4.627c0,0.209-0.188,0.396-0.396,0.396h-0.395
			c-0.23,0-0.293-0.125-0.355-0.312l-0.166-0.562c-0.438,0.438-1.293,1.084-2.586,1.084c-1.459,0-2.562-1.062-2.562-2.73
			C107.135,13.299,108.322,12.11,110.469,12.11z M109.928,16.363c1.041,0,1.938-0.646,2.293-1.168v-1.646
			c-0.25-0.146-0.834-0.334-1.752-0.334c-1.166,0-2,0.584-2,1.668C108.469,15.717,109.031,16.363,109.928,16.363z"/>
		<path fill="#8F9FB2" d="M115.309,9.525c-0.127-0.271,0-0.458,0.312-0.458h0.916c0.168,0,0.293,0.104,0.355,0.229l3.084,6.377
			h0.021l2.918-6.377c0.062-0.125,0.207-0.229,0.354-0.229h0.793c0.312,0,0.457,0.208,0.312,0.479l-6.398,13.861
			c-0.062,0.125-0.209,0.25-0.355,0.25h-0.771c-0.312,0-0.479-0.23-0.334-0.521l2.668-5.754L115.309,9.525z"/>
		<path fill="#8F9FB2" d="M131.486,3.21c0-0.208,0.166-0.396,0.396-0.396h8.211c0.23,0,0.396,0.188,0.396,0.396v0.604
			c0,0.209-0.166,0.396-0.396,0.396h-7.002v5.086h5.98c0.209,0,0.396,0.188,0.396,0.396v0.604c0,0.229-0.188,0.396-0.396,0.396
			h-5.98v5.314h7.002c0.23,0,0.396,0.188,0.396,0.396v0.604c0,0.209-0.166,0.396-0.396,0.396h-8.211
			c-0.23,0-0.396-0.188-0.396-0.396V3.21z"/>
		<path fill="#8F9FB2" d="M145.039,13.152l-2.648-3.543c-0.207-0.271-0.082-0.542,0.271-0.542h0.875
			c0.146,0,0.271,0.083,0.334,0.167l1.98,2.834h0.021l2.062-2.834c0.062-0.084,0.188-0.167,0.334-0.167h0.875
			c0.355,0,0.48,0.271,0.271,0.542l-2.646,3.522l2.668,3.731c0.188,0.27,0.062,0.541-0.271,0.541h-0.771
			c-0.125,0-0.25-0.104-0.312-0.188l-2.209-3.064h-0.021l-2.168,3.086c-0.062,0.082-0.188,0.166-0.334,0.166h-0.771
			c-0.354,0-0.457-0.271-0.27-0.541L145.039,13.152z"/>
		<path fill="#8F9FB2" d="M153.17,23.262c0,0.209-0.188,0.396-0.396,0.396h-0.646c-0.207,0-0.396-0.188-0.396-0.396V9.463
			c0-0.208,0.189-0.396,0.396-0.396h0.438c0.188,0,0.25,0.062,0.334,0.271l0.146,0.396c0,0,0.916-0.875,2.418-0.875
			c2.271,0,3.939,2,3.939,4.397c0,2.438-1.709,4.356-4.002,4.356c-1.377,0-2.23-0.688-2.23-0.688V23.262z M155.213,16.217
			c1.604,0,2.73-1.312,2.73-2.98c0-1.626-0.959-3.064-2.627-3.064c-1.355,0-2.125,1.021-2.125,1.021v4.293
			C153.191,15.486,154.066,16.217,155.213,16.217z"/>
		<path fill="#8F9FB2" d="M161.76,9.463c0-0.208,0.188-0.396,0.396-0.396h0.396c0.166,0,0.312,0.104,0.354,0.292l0.168,0.604
			c0,0,0.771-1.104,2.5-1.104c0.625,0,1.668,0.104,1.459,0.688l-0.25,0.709c-0.104,0.271-0.291,0.271-0.5,0.188
			c-0.188-0.084-0.5-0.167-0.812-0.167c-1.584,0-2.271,1.167-2.271,1.167v5.564c0,0.209-0.188,0.396-0.396,0.396h-0.646
			c-0.209,0-0.396-0.188-0.396-0.396V9.463z"/>
		<path fill="#8F9FB2" d="M172.143,8.859c2.189,0,3.773,1.625,3.773,3.814c0,0.146-0.021,0.416-0.043,0.562
			c-0.02,0.208-0.188,0.354-0.375,0.354h-6.002c0.082,1.396,1.312,2.711,2.793,2.711c0.875,0,1.584-0.334,2.062-0.627
			c0.293-0.166,0.418-0.27,0.584-0.041c0.125,0.166,0.229,0.312,0.354,0.479c0.146,0.189,0.23,0.314-0.082,0.543
			c-0.5,0.396-1.627,0.959-3.064,0.959c-2.521,0-4.086-1.98-4.086-4.377C168.057,10.881,169.621,8.859,172.143,8.859z
			 M174.477,12.424c-0.062-1.209-1.062-2.293-2.334-2.293c-1.396,0-2.48,1-2.627,2.293H174.477z"/>
		<path fill="#8F9FB2" d="M177.689,16.238c0.084-0.127,0.23-0.418,0.293-0.521c0.104-0.168,0.332-0.209,0.562-0.062
			c0,0,0.896,0.729,1.959,0.729c0.854,0,1.355-0.438,1.355-1c0-0.73-0.627-1.062-1.836-1.668c-1.104-0.541-2.375-1.271-2.375-2.688
			c0-0.876,0.709-2.168,2.646-2.168c1.084,0,1.918,0.375,2.314,0.646c0.188,0.126,0.25,0.417,0.125,0.646l-0.168,0.333
			c-0.125,0.229-0.416,0.292-0.604,0.188c0,0-0.896-0.5-1.668-0.5c-0.938,0-1.188,0.479-1.188,0.834c0,0.688,0.688,1,1.543,1.418
			c1.438,0.688,2.73,1.334,2.73,2.834c0,1.209-1.168,2.355-2.877,2.355c-1.396,0-2.252-0.584-2.709-0.938
			C177.689,16.592,177.627,16.383,177.689,16.238z"/>
		<path fill="#8F9FB2" d="M185.111,16.238c0.084-0.127,0.23-0.418,0.293-0.521c0.104-0.168,0.334-0.209,0.562-0.062
			c0,0,0.896,0.729,1.959,0.729c0.855,0,1.355-0.438,1.355-1c0-0.73-0.625-1.062-1.834-1.668c-1.105-0.541-2.377-1.271-2.377-2.688
			c0-0.876,0.709-2.168,2.646-2.168c1.084,0,1.918,0.375,2.314,0.646c0.188,0.126,0.25,0.417,0.125,0.646l-0.166,0.333
			c-0.125,0.229-0.418,0.292-0.605,0.188c0,0-0.896-0.5-1.668-0.5c-0.938,0-1.188,0.479-1.188,0.834c0,0.688,0.688,1,1.543,1.418
			c1.438,0.688,2.73,1.334,2.73,2.834c0,1.209-1.168,2.355-2.877,2.355c-1.396,0-2.25-0.584-2.709-0.938
			C185.111,16.592,185.049,16.383,185.111,16.238z"/>
	</g>
</g>
</svg>
