<?xml version="1.0" encoding="UTF-8" standalone="no"?>
<!-- Generator: Adobe Illustrator 16.0.5, SVG Export Plug-In . SVG Version: 6.00 Build 0)  -->

<svg
   xmlns:dc="http://purl.org/dc/elements/1.1/"
   xmlns:cc="http://creativecommons.org/ns#"
   xmlns:rdf="http://www.w3.org/1999/02/22-rdf-syntax-ns#"
   xmlns:svg="http://www.w3.org/2000/svg"
   xmlns="http://www.w3.org/2000/svg"
   xmlns:sodipodi="http://sodipodi.sourceforge.net/DTD/sodipodi-0.dtd"
   xmlns:inkscape="http://www.inkscape.org/namespaces/inkscape"
   version="1.1"
   id="Layer_1"
   x="0px"
   y="0px"
   width="18"
   height="18"
   viewBox="-0.562 -0.5 18 18"
   enable-background="new -0.562 -0.5 12 12"
   xml:space="preserve"
   inkscape:version="0.91 r13725"
   sodipodi:docname="question.svg"><metadata
     id="metadata9"><rdf:RDF><cc:Work
         rdf:about=""><dc:format>image/svg+xml</dc:format><dc:type
           rdf:resource="http://purl.org/dc/dcmitype/StillImage" /><dc:title></dc:title></cc:Work></rdf:RDF></metadata><defs
     id="defs7" /><sodipodi:namedview
     pagecolor="#ffffff"
     bordercolor="#666666"
     borderopacity="1"
     objecttolerance="10"
     gridtolerance="10"
     guidetolerance="10"
     inkscape:pageopacity="0"
     inkscape:pageshadow="2"
     inkscape:window-width="1362"
     inkscape:window-height="845"
     id="namedview5"
     showgrid="false"
     inkscape:zoom="19.666667"
     inkscape:cx="-1.4237287"
     inkscape:cy="10.911398"
     inkscape:window-x="46"
     inkscape:window-y="0"
     inkscape:window-maximized="0"
     inkscape:current-layer="Layer_1"
     showguides="false" /><g
     id="g4135"
     transform="translate(3,3)"><g
       id="text4137"
       style="font-style:normal;font-weight:normal;font-size:13.08901024px;line-height:125%;font-family:sans-serif;text-align:start;letter-spacing:0px;word-spacing:0px;text-anchor:start;fill:#9ca6b0;fill-opacity:1;stroke:none;stroke-width:1px;stroke-linecap:butt;stroke-linejoin:miter;stroke-opacity:1"
       transform="scale(1.0787716,0.92698029)"><path
         id="path4144"
         style="fill:#9ca6b0;fill-opacity:1"
         d="m 4.053491,9.1671499 1.297397,0 0,1.6233441 -1.297397,0 0,-1.6233441 z m 1.2590503,-0.9394944 -1.2207036,0 0,-0.9842322 q 0,-0.6455029 0.1789513,-1.0609256 Q 4.4497403,5.767075 5.024941,5.2174388 L 5.6001416,4.6486293 Q 5.9644354,4.3099 6.1242133,4.0095175 6.2903824,3.7091349 6.2903824,3.3959701 q 0,-0.5688095 -0.4218138,-0.920321 -0.4154227,-0.3515115 -1.1056635,-0.3515115 -0.5048983,0 -1.080099,0.2236891 -0.5688095,0.2236892 -1.188748,0.6518941 l 0,-1.2015303 Q 3.0948233,1.4338968 3.7083706,1.2549455 4.3283091,1.0759942 4.9865943,1.0759942 q 1.1759657,0 1.8853799,0.6199385 0.7158052,0.6199384 0.7158052,1.6361262 0,0.485725 -0.2300802,0.9267122 -0.2300803,0.434596 -0.8052809,0.9842322 L 5.9899998,5.7926395 Q 5.6896173,6.093022 5.5617949,6.2655822 5.4403637,6.4317513 5.3892347,6.5915293 5.350888,6.7257427 5.3317147,6.9174763 5.3125413,7.1092098 5.3125413,7.441548 l 0,0.7861075 z"
         inkscape:connector-curvature="0" /></g><rect
       y="0.14882898"
       x="-0.18695182"
       height="10.702342"
       width="11.249904"
       id="rect4141"
       style="fill:none;fill-opacity:1;stroke:#9ca6b0;stroke-width:0.5873844;stroke-linecap:round;stroke-linejoin:miter;stroke-miterlimit:4;stroke-dasharray:0.5873844, 1.76215321;stroke-dashoffset:1.46846104;stroke-opacity:1" /></g></svg>