<?xml version="1.0" encoding="utf-8"?>
<!-- Generator: Adobe Illustrator 16.0.5, SVG Export Plug-In . SVG Version: 6.00 Build 0)  -->
<!DOCTYPE svg PUBLIC "-//W3C//DTD SVG 1.1//EN" "http://www.w3.org/Graphics/SVG/1.1/DTD/svg11.dtd">
<svg version="1.1" id="Layer_1" xmlns="http://www.w3.org/2000/svg" xmlns:xlink="http://www.w3.org/1999/xlink" x="0px" y="0px"
	 width="16px" height="16px" viewBox="0 0 16 16" enable-background="new 0 0 16 16" xml:space="preserve">
<g>
	<path fill="#ADBED1" d="M13.72,14.427L8.803,9.51l0.354-0.354c0.729-0.728,1.13-1.696,1.13-2.726c0-1.03-0.401-1.998-1.13-2.727
		C8.428,2.975,7.46,2.573,6.43,2.573l0,0c-1.03,0-1.999,0.401-2.728,1.131C2.974,4.433,2.573,5.4,2.573,6.431
		c0,1.029,0.4,1.998,1.129,2.726c0.713,0.713,1.66,1.114,2.667,1.131c0.555,0.007,1.056-0.092,1.545-0.296L8.3,10.913
		c-0.618,0.259-1.273,0.38-1.946,0.374c-1.269-0.021-2.462-0.526-3.358-1.424C2.078,8.946,1.573,7.728,1.573,6.431
		s0.505-2.517,1.422-3.434C3.912,2.079,5.132,1.573,6.43,1.573l0,0c1.298,0,2.517,0.506,3.434,1.424
		c0.917,0.917,1.423,2.137,1.423,3.434c0,1.129-0.383,2.198-1.087,3.062l4.228,4.228L13.72,14.427z"/>
</g>
</svg>
